<svg width="24" height="30" viewBox="0 0 24 30" fill="none" xmlns="http://www.w3.org/2000/svg">
<g filter="url(#filter0_d_2_316)">
<path d="M17.635 23.23C17.9423 23.8526 17.647 26.2105 16.0176 26.7571C14.3882 27.3037 12.3064 26.7571 12.3064 26.7571L8.52879 20.3795L2 25.8907V1L22 17.8826H14.5484C14.9141 18.4745 17.2446 22.4391 17.635 23.23Z" fill="white"/>
<path fill-rule="evenodd" clip-rule="evenodd" d="M3.7522 4.57082V22.3198L9.00881 17.8826L13.3893 25.278C13.3893 25.278 14.5743 25.5972 15.1415 25.278C15.7087 24.9588 16.2728 24.316 16.0176 23.7989C14.8127 21.3578 11.6371 16.4035 11.6371 16.4035H17.7698L3.7522 4.57082Z" fill="black"/>
</g>
<defs>
<filter id="filter0_d_2_316" x="0.2" y="0.2" width="23.6" height="29.6" filterUnits="userSpaceOnUse" color-interpolation-filters="sRGB">
<feFlood flood-opacity="0" result="BackgroundImageFix"/>
<feColorMatrix in="SourceAlpha" type="matrix" values="0 0 0 0 0 0 0 0 0 0 0 0 0 0 0 0 0 0 127 0" result="hardAlpha"/>
<feOffset dy="1"/>
<feGaussianBlur stdDeviation="0.9"/>
<feColorMatrix type="matrix" values="0 0 0 0 0 0 0 0 0 0 0 0 0 0 0 0 0 0 0.65 0"/>
<feBlend mode="normal" in2="BackgroundImageFix" result="effect1_dropShadow_2_316"/>
<feBlend mode="normal" in="SourceGraphic" in2="effect1_dropShadow_2_316" result="shape"/>
</filter>
</defs>
</svg>
