<svg width="30" height="31" viewBox="0 0 30 31" fill="none" xmlns="http://www.w3.org/2000/svg">
<g filter="url(#filter0_d_2_137)">
<path d="M6.73828 21.8392C6.22026 21.1898 5.57274 19.8731 4.44421 18.2317C3.79669 17.3298 2.20564 15.6162 1.72463 14.7324C1.37787 14.1953 1.27725 13.5413 1.44712 12.9287C1.7375 11.7638 2.87085 10.9911 4.0927 11.1249C5.03771 11.31 5.90617 11.7616 6.59028 12.4236C7.06792 12.8622 7.50729 13.3389 7.90382 13.8486C8.19983 14.2093 8.27383 14.3536 8.60684 14.7685C8.93985 15.1833 9.16186 15.5982 8.99535 14.9849C8.86585 14.0831 8.64384 12.5679 8.32933 11.2151C8.08882 10.187 8.03332 10.0246 7.81131 9.249C7.58931 8.47339 7.4598 7.82404 7.2193 6.9402C6.99945 6.07182 6.82654 5.19279 6.70128 4.30672C6.46809 3.17343 6.63774 1.9965 7.18229 0.969783C7.82869 0.377016 8.77691 0.220564 9.58737 0.572958C10.4025 1.15978 11.0103 1.97926 11.3264 2.91783C11.8113 4.07294 12.1348 5.28628 12.2885 6.52534C12.5845 8.32909 13.158 10.9626 13.1765 11.5037C13.1765 10.8363 13.047 9.42938 13.1765 8.79806C13.3048 8.13992 13.774 7.59372 14.416 7.35506C14.967 7.19025 15.5498 7.15319 16.1181 7.24684C16.6917 7.36375 17.1997 7.68541 17.5426 8.14871C17.9712 9.20101 18.2091 10.3179 18.2456 11.4496C18.2952 10.4586 18.4691 9.47723 18.7637 8.5275C19.0728 8.10281 19.5243 7.7966 20.0402 7.6617C20.6518 7.55267 21.2786 7.55267 21.8903 7.6617C22.3918 7.82518 22.8305 8.13341 23.1483 8.54554C23.5401 9.50215 23.7772 10.5122 23.8513 11.5398C23.8513 11.7923 23.9808 10.8363 24.3878 10.205C24.5993 9.59279 25.1298 9.13711 25.7793 9.0096C26.4289 8.88209 27.0988 9.10212 27.5369 9.5868C27.9749 10.0715 28.1144 10.7472 27.9029 11.3594C27.9029 12.5318 27.9029 12.4777 27.9029 13.2714C27.9029 14.065 27.9029 14.7685 27.9029 15.4359C27.8355 16.4914 27.6871 17.5405 27.4589 18.5744C27.137 19.4891 26.6888 20.3569 26.1269 21.1538C25.2286 22.1277 24.4864 23.2284 23.9253 24.4186C23.7861 25.0098 23.724 25.6159 23.7403 26.2223C23.7385 26.7826 23.8131 27.3407 23.9623 27.8818C23.2059 27.9597 22.4432 27.9597 21.6867 27.8818C20.9652 27.7735 20.0772 26.3666 19.8367 25.9337C19.7177 25.7013 19.4741 25.5544 19.2077 25.5544C18.9412 25.5544 18.6976 25.7013 18.5786 25.9337C18.1716 26.6191 17.2651 27.8637 16.6361 27.9359C15.3965 28.0802 12.8435 27.9359 10.8269 27.9359C10.8269 27.9359 11.1599 26.1321 10.4014 25.4828C9.64287 24.8334 8.86585 24.0758 8.29233 23.5708L6.73828 21.8392Z" fill="white"/>
<path fill-rule="evenodd" clip-rule="evenodd" d="M6.73828 21.8392C6.22026 21.1898 5.57274 19.8731 4.44421 18.2317C3.79669 17.3298 2.20564 15.6162 1.72463 14.7324C1.37787 14.1953 1.27725 13.5413 1.44712 12.9287C1.7375 11.7638 2.87085 10.9911 4.0927 11.1249C5.03771 11.31 5.90617 11.7616 6.59028 12.4236C7.06792 12.8622 7.50729 13.3389 7.90382 13.8486C8.19983 14.2093 8.27383 14.3536 8.60684 14.7685C8.93985 15.1833 9.16186 15.5982 8.99535 14.9849C8.86585 14.0831 8.64384 12.5679 8.32933 11.2151C8.08882 10.187 8.03332 10.0246 7.81131 9.249C7.58931 8.47339 7.4598 7.82404 7.2193 6.9402C6.99945 6.07182 6.82654 5.19279 6.70128 4.30672C6.46809 3.17343 6.63774 1.9965 7.18229 0.969783C7.82869 0.377016 8.77691 0.220564 9.58737 0.572958C10.4025 1.15978 11.0103 1.97926 11.3264 2.91783C11.8113 4.07294 12.1348 5.28628 12.2885 6.52534C12.5845 8.32909 13.158 10.9626 13.1765 11.5037C13.1765 10.8363 13.047 9.42938 13.1765 8.79806C13.3048 8.13992 13.774 7.59372 14.416 7.35506C14.967 7.19025 15.5498 7.15319 16.1181 7.24684C16.6917 7.36375 17.1997 7.68541 17.5426 8.14871C17.9712 9.20101 18.2091 10.3179 18.2456 11.4496C18.2952 10.4586 18.4691 9.47723 18.7637 8.5275C19.0728 8.10281 19.5243 7.7966 20.0402 7.6617C20.6518 7.55267 21.2786 7.55267 21.8903 7.6617C22.3918 7.82518 22.8305 8.13341 23.1483 8.54554C23.5401 9.50215 23.7772 10.5122 23.8513 11.5398C23.8513 11.7923 23.9808 10.8363 24.3878 10.205C24.5993 9.59279 25.1298 9.13711 25.7793 9.0096C26.4289 8.88209 27.0988 9.10212 27.5369 9.5868C27.9749 10.0715 28.1144 10.7472 27.9029 11.3594C27.9029 12.5318 27.9029 12.4777 27.9029 13.2714C27.9029 14.065 27.9029 14.7685 27.9029 15.4359C27.8355 16.4914 27.6871 17.5405 27.4589 18.5744C27.137 19.4891 26.6888 20.3569 26.1269 21.1538C25.2286 22.1277 24.4864 23.2284 23.9253 24.4186C23.7861 25.0098 23.724 25.6159 23.7403 26.2223C23.7385 26.7826 23.8131 27.3407 23.9623 27.8818C23.2059 27.9597 22.4432 27.9597 21.6867 27.8818C20.9652 27.7735 20.0772 26.3666 19.8367 25.9337C19.7177 25.7013 19.4741 25.5544 19.2077 25.5544C18.9412 25.5544 18.6976 25.7013 18.5786 25.9337C18.1716 26.6191 17.2651 27.8637 16.6361 27.9359C15.3965 28.0802 12.8435 27.9359 10.8269 27.9359C10.8269 27.9359 11.1599 26.1321 10.4014 25.4828C9.64287 24.8334 8.86585 24.0758 8.29233 23.5708L6.73828 21.8392Z" stroke="black" stroke-width="0.75" stroke-linecap="round" stroke-linejoin="round"/>
<path d="M22.4268 22.8238V16.5977C22.4268 16.225 22.1162 15.9229 21.733 15.9229C21.3498 15.9229 21.0392 16.225 21.0392 16.5977V22.8238C21.0392 23.1965 21.3498 23.4986 21.733 23.4986C22.1162 23.4986 22.4268 23.1965 22.4268 22.8238Z" fill="black"/>
<path d="M18.7636 22.8216L18.7266 16.5922C18.7244 16.2204 18.412 15.9208 18.0289 15.9229C17.6457 15.925 17.3369 16.2282 17.3391 16.6L17.3761 22.8293C17.3783 23.2011 17.6907 23.5008 18.0739 23.4986C18.457 23.4965 18.7658 23.1933 18.7636 22.8216Z" fill="black"/>
<path d="M13.639 16.6065L13.676 22.823C13.6782 23.1983 13.9907 23.5008 14.3738 23.4986C14.757 23.4964 15.0658 23.1904 15.0635 22.815L15.0265 16.5986C15.0243 16.2232 14.7119 15.9207 14.3287 15.9229C13.9456 15.9251 13.6368 16.2311 13.639 16.6065Z" fill="black"/>
</g>
<defs>
<filter id="filter0_d_2_137" x="0.191333" y="0.0118103" width="28.9837" height="30.1632" filterUnits="userSpaceOnUse" color-interpolation-filters="sRGB">
<feFlood flood-opacity="0" result="BackgroundImageFix"/>
<feColorMatrix in="SourceAlpha" type="matrix" values="0 0 0 0 0 0 0 0 0 0 0 0 0 0 0 0 0 0 127 0" result="hardAlpha"/>
<feOffset dy="1"/>
<feGaussianBlur stdDeviation="0.4"/>
<feColorMatrix type="matrix" values="0 0 0 0 0 0 0 0 0 0 0 0 0 0 0 0 0 0 0.5 0"/>
<feBlend mode="normal" in2="BackgroundImageFix" result="effect1_dropShadow_2_137"/>
<feBlend mode="normal" in="SourceGraphic" in2="effect1_dropShadow_2_137" result="shape"/>
</filter>
</defs>
</svg>
