<svg width="34" height="41" viewBox="0 0 34 41" fill="none" xmlns="http://www.w3.org/2000/svg">
<path d="M19.5834 32.8801V23.3757H23.3304H23.8304V22.8757V20.4751V19.9751H23.3304H19.5834V8.09211C20.4058 7.01113 21.6658 6.02776 23.2926 5.2344C24.3384 4.79402 25.6126 4.40119 26.9705 4.11848C28.332 3.97662 30.0268 3.91151 31.7159 3.97266L32.1807 3.98949L32.231 3.52708L32.4971 1.08236L32.5552 0.54804L32.0181 0.528595C29.9041 0.452066 27.7817 0.534253 25.7036 0.773239L25.6829 0.775616L25.6625 0.7797C23.5439 1.204 21.8256 1.73155 20.2609 2.39683L20.2495 2.40169L20.2383 2.40712C18.9981 3.00882 17.9085 3.68058 16.9792 4.415C16.1116 3.69807 15.1133 3.03943 14.0016 2.4502L13.9859 2.44191L13.9697 2.43475C12.2402 1.66951 10.4694 1.14468 8.58653 0.808783L8.57207 0.806201L8.55747 0.804475C6.2533 0.531864 4.11379 0.449471 1.9825 0.528749L1.44434 0.548767L1.50418 1.08397L1.77752 3.52842L1.82911 3.98976L2.29301 3.97251C3.99663 3.90914 5.70704 3.97451 7.38037 4.1668C8.4955 4.37354 9.73091 4.74024 10.8268 5.21894C12.2991 6.00862 13.5485 7.04096 14.3788 8.17137V19.9751H10.6318H10.1318V20.4751V22.8757V23.3757H10.6318H14.3788L14.3788 32.8276C13.5484 33.9561 12.2937 34.9922 10.6762 35.853C9.73282 36.2592 8.49879 36.626 7.17432 36.8626C5.70782 37.0252 3.99801 37.0907 2.29423 37.0268L1.83061 37.0094L1.77865 37.4704L1.50315 39.9148L1.44279 40.4503L1.98127 40.4704C4.11208 40.5503 6.2521 40.4681 8.34655 40.2257L8.36086 40.224L8.37505 40.2215C10.4646 39.8568 12.2378 39.3321 13.8188 38.6374L13.8351 38.6302L13.8509 38.6218C15.0513 37.9886 16.0995 37.3016 16.9951 36.5632C17.9176 37.2898 18.9871 37.9476 20.1811 38.5225L20.191 38.5273L20.2011 38.5317C21.8614 39.2429 23.5814 39.7717 25.4037 40.1469L25.423 40.1508L25.4425 40.1533C27.7863 40.4462 29.8954 40.5379 31.9991 40.4713L32.5315 40.4544L32.4811 39.9242L32.2484 37.4783L32.204 37.0111L31.7348 37.0259C30.0582 37.079 28.377 37.0066 26.7335 36.8109C25.6541 36.5751 24.3814 36.1829 23.2292 35.6921C21.6837 34.9437 20.4167 33.9638 19.5834 32.8801Z" fill="black" stroke="white"/>
</svg>
